<svg width="212" height="51" viewBox="0 0 212 51" fill="none" xmlns="http://www.w3.org/2000/svg">
<path d="M7.85938 27.4551C7.26172 27.9473 6.92773 28.8262 6.85742 30.0918C6.82227 31.3223 7.0332 32.5879 7.49023 33.8887C7.98242 35.1543 8.7207 36.2793 9.70508 37.2637C10.6895 38.248 11.9199 38.7402 13.3965 38.7402C14.3457 38.7402 15.1543 38.5117 15.8223 38.0547C16.5254 37.5977 17.0879 37.0352 17.5098 36.3672C17.9668 35.6641 18.3008 34.8906 18.5117 34.0469C18.7227 33.2031 18.8281 32.377 18.8281 31.5684C18.8281 30.4082 18.5996 29.4414 18.1426 28.668C17.7207 27.8945 17.1406 27.2266 16.4023 26.6641C15.6992 26.0664 14.873 25.5742 13.9238 25.1875C13.0098 24.7656 12.0781 24.3438 11.1289 23.9219C10.25 23.5703 9.19531 23.1309 7.96484 22.6035C6.73438 22.041 5.55664 21.3203 4.43164 20.4414C3.30664 19.5273 2.33984 18.4199 1.53125 17.1191C0.757812 15.7832 0.371094 14.1484 0.371094 12.2148C0.371094 10.9492 0.705078 9.66602 1.37305 8.36523C2.04102 7.06445 2.99023 5.88672 4.2207 4.83203C5.45117 3.74219 6.92773 2.86328 8.65039 2.19531C10.4082 1.52734 12.377 1.19336 14.5566 1.19336C16.7012 1.19336 18.4414 1.38672 19.7773 1.77344C21.1133 2.16016 22.1504 2.66992 22.8887 3.30273C23.627 3.90039 24.1191 4.56836 24.3652 5.30664C24.6465 6.00977 24.7871 6.67773 24.7871 7.31055C24.7871 7.94336 24.5938 8.59375 24.207 9.26172C23.8203 9.89453 23.3633 10.4922 22.8359 11.0547C22.3086 11.582 21.7637 12.0566 21.2012 12.4785C20.6387 12.8652 20.1816 13.1289 19.8301 13.2695C20.0059 12.8125 20.1816 12.1797 20.3574 11.3711C20.5332 10.5625 20.4805 9.75391 20.1992 8.94531C19.9531 8.13672 19.3379 7.43359 18.3535 6.83594C17.4043 6.23828 15.8574 5.93945 13.7129 5.93945C12.4824 5.93945 11.2871 6.13281 10.127 6.51953C8.9668 6.90625 7.92969 7.41602 7.01562 8.04883C6.13672 8.64648 5.43359 9.33203 4.90625 10.1055C4.37891 10.8789 4.11523 11.6699 4.11523 12.4785C4.11523 13.252 4.37891 13.9727 4.90625 14.6406C5.46875 15.2734 6.20703 15.8887 7.12109 16.4863C8.07031 17.0488 9.14258 17.6113 10.3379 18.1738C11.5684 18.7363 12.8516 19.2988 14.1875 19.8613C15.4883 20.4238 16.7715 21.0391 18.0371 21.707C19.3027 22.3398 20.4277 23.0781 21.4121 23.9219C22.4316 24.7656 23.2402 25.7148 23.8379 26.7695C24.4355 27.8242 24.7344 29.0371 24.7344 30.4082C24.7344 31.8848 24.4531 33.3086 23.8906 34.6797C23.3633 36.0156 22.5898 37.1934 21.5703 38.2129C20.5859 39.2324 19.373 40.041 17.9316 40.6387C16.4902 41.2715 14.8555 41.5879 13.0273 41.5879C11.4102 41.5879 9.88086 41.3242 8.43945 40.7969C6.99805 40.2695 5.73242 39.584 4.64258 38.7402C3.58789 37.8965 2.74414 36.9648 2.11133 35.9453C1.47852 34.9258 1.16211 33.9238 1.16211 32.9395C1.16211 31.8848 1.39062 30.9883 1.84766 30.25C2.33984 29.5117 2.9375 28.9316 3.64062 28.5098C4.34375 28.0527 5.06445 27.7363 5.80273 27.5605C6.57617 27.3848 7.26172 27.3496 7.85938 27.4551ZM28.4258 18.332C28.4258 18.1211 28.707 17.8926 29.2695 17.6465C29.832 17.4004 30.4473 17.207 31.1152 17.0664C31.8184 16.8906 32.4512 16.8027 33.0137 16.8027C33.6113 16.7676 33.9102 16.8906 33.9102 17.1719C33.9102 17.6992 33.875 18.4551 33.8047 19.4395C33.7344 20.3887 33.6465 21.4082 33.541 22.498C33.4355 23.5527 33.3301 24.625 33.2246 25.7148C33.1191 26.7695 33.0488 27.666 33.0137 28.4043C32.9434 29.1777 32.873 30.0215 32.8027 30.9355C32.7324 31.709 32.6797 32.5703 32.6445 33.5195C32.6094 34.4688 32.6094 35.4355 32.6445 36.4199C32.6445 36.5957 32.4688 36.7715 32.1172 36.9473C31.7656 37.123 31.3789 37.2461 30.957 37.3164C30.5352 37.4219 30.1309 37.4746 29.7441 37.4746C29.3574 37.4746 29.1465 37.4043 29.1113 37.2637C29.041 37.123 28.9707 36.877 28.9004 36.5254C28.8301 36.1738 28.7598 35.6816 28.6895 35.0488C28.6191 34.3809 28.5664 33.5371 28.5312 32.5176C28.4961 31.4629 28.5137 30.1973 28.584 28.7207C28.7246 25.8027 28.7422 23.5527 28.6367 21.9707C28.5312 20.3535 28.4609 19.1406 28.4258 18.332ZM32.1172 7.83789C32.8203 7.83789 33.4883 8.04883 34.1211 8.4707C34.7539 8.89258 35.0703 9.45508 35.0703 10.1582C35.0703 10.6855 34.9297 11.1953 34.6484 11.6875C34.4023 12.1797 34.0859 12.6191 33.6992 13.0059C33.3125 13.3926 32.873 13.709 32.3809 13.9551C31.8887 14.166 31.4316 14.2715 31.0098 14.2715C30.4473 14.2715 29.9902 14.1836 29.6387 14.0078C29.2871 13.7969 29.0059 13.5684 28.7949 13.3223C28.6191 13.041 28.4961 12.7422 28.4258 12.4258C28.3555 12.1094 28.3203 11.8105 28.3203 11.5293C28.3203 11.1777 28.373 10.791 28.4785 10.3691C28.584 9.91211 28.7773 9.50781 29.0586 9.15625C29.3398 8.76953 29.7266 8.45312 30.2188 8.20703C30.7109 7.96094 31.3438 7.83789 32.1172 7.83789ZM30.7988 12.7422C31.0098 12.7422 31.2383 12.6719 31.4844 12.5312C31.7656 12.3555 32.0117 12.1621 32.2227 11.9512C32.4688 11.7402 32.6621 11.5117 32.8027 11.2656C32.9785 11.0195 33.0664 10.8086 33.0664 10.6328C33.0664 10.3516 32.9258 10.2109 32.6445 10.2109C32.4688 10.2109 32.2402 10.2812 31.959 10.4219C31.7129 10.5625 31.4668 10.7383 31.2207 10.9492C30.9746 11.125 30.7637 11.3359 30.5879 11.582C30.4473 11.793 30.377 12.0039 30.377 12.2148C30.377 12.5664 30.5176 12.7422 30.7988 12.7422ZM49.2031 20.5469C48.9219 20.5469 48.6055 20.7051 48.2539 21.0215C47.9375 21.3027 47.6211 21.707 47.3047 22.2344C46.9883 22.7266 46.6719 23.2891 46.3555 23.9219C46.0391 24.5195 45.7578 25.1348 45.5117 25.7676C44.9141 27.2441 44.334 28.7559 43.7715 30.3027C43.209 31.8496 42.875 33.1855 42.7695 34.3105C42.7344 34.416 42.7168 34.5215 42.7168 34.627C42.7168 34.6973 42.7168 34.7676 42.7168 34.8379C42.6816 34.9082 42.6641 35.0137 42.6641 35.1543C42.5938 35.6465 42.4883 36.0508 42.3477 36.3672C42.2422 36.6484 41.9961 36.8418 41.6094 36.9473C41.1875 37.0176 40.7656 37.0703 40.3438 37.1055C39.9219 37.1406 39.5176 37.1055 39.1309 37C38.8848 36.9297 38.6914 36.8066 38.5508 36.6309C38.4453 36.4199 38.3574 36.1914 38.2871 35.9453C38.252 35.6641 38.2168 35.4004 38.1816 35.1543C38.1816 34.9082 38.1816 34.6973 38.1816 34.5215C38.1816 34.3105 38.1992 33.6602 38.2344 32.5703C38.2695 31.4453 38.3047 30.1797 38.3398 28.7734C38.375 27.3672 38.3926 25.9961 38.3926 24.6602C38.3926 23.2891 38.375 22.252 38.3398 21.5488C38.2695 21.0566 38.1992 20.5996 38.1289 20.1777C38.0586 19.791 37.9707 19.4043 37.8652 19.0176C37.7949 18.6309 37.6719 18.2969 37.4961 18.0156C37.8828 17.8047 38.2695 17.6289 38.6562 17.4883C39.043 17.3477 39.3945 17.2422 39.7109 17.1719C40.0977 17.0664 40.4492 16.9961 40.7656 16.9609C41.6094 16.8906 42.2598 16.8906 42.7168 16.9609C43.209 17.0312 43.4551 17.4004 43.4551 18.0684C43.4551 18.666 43.4023 19.5977 43.2969 20.8633C43.2266 22.0938 43.1387 23.8164 43.0332 26.0312C43.4199 25.1523 43.877 24.168 44.4043 23.0781C44.9316 21.9531 45.4941 20.916 46.0918 19.9668C46.6895 18.9824 47.3047 18.1738 47.9375 17.541C48.5703 16.873 49.168 16.5391 49.7305 16.5391C50.1172 16.5391 50.5566 16.627 51.0488 16.8027C51.5762 16.9434 52.0684 17.1543 52.5254 17.4355C52.9824 17.6816 53.3867 17.9629 53.7383 18.2793C54.125 18.5957 54.3887 18.9121 54.5293 19.2285C54.6699 19.5801 54.7578 20.125 54.793 20.8633C54.8281 21.6016 54.8281 22.4277 54.793 23.3418C55.0742 22.6738 55.3906 22.0234 55.7422 21.3906C56.0938 20.7578 56.4453 20.1777 56.7969 19.6504C57.1836 19.0879 57.5703 18.6133 57.957 18.2266C58.3438 17.8398 58.6953 17.5762 59.0117 17.4355C59.4336 17.2598 59.9434 17.2246 60.541 17.3301C61.1387 17.4355 61.7188 17.6289 62.2812 17.9102C62.8789 18.1562 63.3887 18.4551 63.8105 18.8066C64.2676 19.1582 64.5488 19.4922 64.6543 19.8086C64.7598 20.1602 64.8477 20.7051 64.918 21.4434C64.9883 22.1816 65.041 22.9902 65.0762 23.8691C65.1113 24.748 65.1289 25.6621 65.1289 26.6113C65.1289 27.5254 65.1113 28.334 65.0762 29.0371C65.0059 31.0762 65.0234 32.6934 65.1289 33.8887C65.2344 35.0488 65.6562 35.9102 66.3945 36.4727C65.9023 36.7891 65.4453 37.0176 65.0234 37.1582C64.6016 37.334 64.2324 37.457 63.916 37.5273C63.5293 37.6328 63.1953 37.6855 62.9141 37.6855C62.5273 37.6855 62.2109 37.5801 61.9648 37.3691C61.7188 37.1934 61.5254 36.9473 61.3848 36.6309C61.2441 36.3145 61.1562 35.9629 61.1211 35.5762C61.0859 35.1895 61.0684 34.8027 61.0684 34.416C61.0684 34.0645 61.0859 33.4844 61.1211 32.6758C61.1914 31.832 61.2441 30.8828 61.2793 29.8281C61.3145 28.7734 61.3145 27.7012 61.2793 26.6113C61.2441 25.4863 61.1562 24.4668 61.0156 23.5527C60.9102 22.6035 60.7168 21.8301 60.4355 21.2324C60.1543 20.6348 59.7676 20.3359 59.2754 20.3359C58.8535 20.3359 58.4492 20.5996 58.0625 21.127C57.6758 21.6191 57.3066 22.2871 56.9551 23.1309C56.6035 23.9395 56.2871 24.8535 56.0059 25.873C55.7598 26.8574 55.5312 27.8418 55.3203 28.8262C55.1094 29.8105 54.9512 30.7246 54.8457 31.5684C54.7402 32.377 54.6875 33.0273 54.6875 33.5195L54.6348 33.0449C54.6348 33.7129 54.6348 34.3281 54.6348 34.8906C54.6699 35.4531 54.7051 36.0156 54.7402 36.5781C54.7754 36.7891 54.582 36.9648 54.1602 37.1055C53.7383 37.2812 53.2637 37.3516 52.7363 37.3164C52.2441 37.3164 51.7871 37.2109 51.3652 37C50.9434 36.7891 50.7324 36.4375 50.7324 35.9453C50.7324 35.5938 50.7324 35.0664 50.7324 34.3633C50.7324 33.6602 50.7148 32.8691 50.6797 31.9902C50.6797 31.1113 50.6621 30.1973 50.627 29.248C50.627 28.2637 50.6094 27.332 50.5742 26.4531C50.5742 25.7852 50.5566 25.0996 50.5215 24.3965C50.5215 23.6934 50.4863 23.0605 50.416 22.498C50.3457 21.9004 50.2051 21.4258 49.9941 21.0742C49.8184 20.7227 49.5547 20.5469 49.2031 20.5469ZM79.4199 16.1172C80.4043 16.1172 81.3184 16.3984 82.1621 16.9609C83.0059 17.5234 83.7266 18.2617 84.3242 19.1758C84.9219 20.0898 85.3965 21.1445 85.748 22.3398C86.0996 23.5 86.2754 24.7129 86.2754 25.9785C86.2754 27.2441 86.1348 28.5801 85.8535 29.9863C85.5723 31.3926 85.1328 32.6934 84.5352 33.8887C83.9375 35.084 83.1641 36.0859 82.2148 36.8945C81.2656 37.668 80.1055 38.0547 78.7344 38.0547C77.6445 38.0547 76.6074 37.668 75.623 36.8945C74.6738 36.0859 73.9355 35.084 73.4082 33.8887C73.3379 35.1191 73.1797 36.3672 72.9336 37.6328C72.6875 38.9336 72.5645 40.4805 72.5645 42.2734C72.5645 42.8008 72.582 43.3984 72.6172 44.0664C72.6523 44.7344 72.7051 45.4023 72.7754 46.0703C72.8457 46.7383 72.9512 47.3535 73.0918 47.916C73.2324 48.4785 73.3906 48.918 73.5664 49.2344C72.9688 49.5859 72.4238 49.8496 71.9316 50.0254C71.4746 50.2012 71.0703 50.3242 70.7188 50.3945C70.332 50.5 69.9629 50.5527 69.6113 50.5527C69.1543 50.5527 68.8555 50.3594 68.7148 49.9727C68.5742 49.5859 68.5039 48.9004 68.5039 47.916C68.5039 47.2832 68.5215 46.3691 68.5566 45.1738C68.627 44.0137 68.6973 42.6777 68.7676 41.166C68.873 39.6543 68.9609 38.0723 69.0312 36.4199C69.1367 34.7324 69.2246 33.0801 69.2949 31.4629C69.4004 29.8457 69.4707 28.3516 69.5059 26.9805C69.5762 25.5742 69.6113 24.3965 69.6113 23.4473C69.6113 22.2871 69.5938 21.3906 69.5586 20.7578C69.5234 20.0898 69.4707 19.5977 69.4004 19.2812C69.3652 18.9297 69.3125 18.6836 69.2422 18.543C69.1719 18.4023 69.084 18.2441 68.9785 18.0684C69.2949 17.8223 69.6641 17.6113 70.0859 17.4355C70.543 17.2246 70.9824 17.084 71.4043 17.0137C71.8613 16.9082 72.2656 16.873 72.6172 16.9082C73.0039 16.9434 73.3027 17.0312 73.5137 17.1719C73.6895 17.3477 73.8125 17.6113 73.8828 17.9629C73.9883 18.3145 74.0762 18.8418 74.1465 19.5449C74.8145 18.6309 75.5703 17.8398 76.4141 17.1719C77.293 16.4688 78.2949 16.1172 79.4199 16.1172ZM77.3633 34.9434C77.9961 34.9434 78.5938 34.6445 79.1562 34.0469C79.7539 33.4492 80.2637 32.6934 80.6855 31.7793C81.1426 30.8301 81.4941 29.793 81.7402 28.668C82.0215 27.5078 82.1621 26.3652 82.1621 25.2402C82.1621 24.0098 82.0391 23.0078 81.793 22.2344C81.582 21.4258 81.3008 20.793 80.9492 20.3359C80.6328 19.8438 80.2812 19.5098 79.8945 19.334C79.543 19.123 79.2266 19.0176 78.9453 19.0176C78.2773 19.0176 77.6445 19.2988 77.0469 19.8613C76.4492 20.3887 75.9219 21.0918 75.4648 21.9707C75.0078 22.8145 74.6387 23.7637 74.3574 24.8184C74.1113 25.873 73.9883 26.9277 73.9883 27.9824C73.9883 28.9668 74.0762 29.8809 74.252 30.7246C74.4629 31.5684 74.7266 32.3066 75.043 32.9395C75.3594 33.5723 75.7109 34.0645 76.0977 34.416C76.5195 34.7676 76.9414 34.9434 77.3633 34.9434ZM96.1895 2.82812C96.1191 4.09375 95.9961 5.55273 95.8203 7.20508C95.6445 8.85742 95.4512 10.6328 95.2402 12.5312C95.0645 14.4297 94.8711 16.416 94.6602 18.4902C94.4844 20.5645 94.3262 22.6562 94.1855 24.7656C94.0449 26.875 93.9746 28.5977 93.9746 29.9336C94.0098 31.2344 94.0977 32.3066 94.2383 33.1504C94.3789 33.9941 94.5723 34.6621 94.8184 35.1543C95.0645 35.6465 95.3809 36.1211 95.7676 36.5781C95.3105 36.8594 94.8887 37.0703 94.502 37.2109C94.1152 37.3516 93.7812 37.457 93.5 37.5273C93.1484 37.6328 92.832 37.6855 92.5508 37.6855C92.0234 37.6855 91.5664 37.4395 91.1797 36.9473C90.793 36.4199 90.4766 35.752 90.2305 34.9434C90.0195 34.1348 89.8438 33.2383 89.7031 32.2539C89.5977 31.2344 89.5449 30.2324 89.5449 29.248C89.5449 28.1934 89.5801 26.9805 89.6504 25.6094C89.7207 24.2031 89.791 22.7266 89.8613 21.1797C89.9668 19.5977 90.0723 17.9629 90.1777 16.2754C90.2832 14.5527 90.3711 12.8477 90.4414 11.1602C90.5117 9.85938 90.582 8.68164 90.6523 7.62695C90.7227 6.71289 90.7754 5.88672 90.8105 5.14844C90.8457 4.375 90.8281 3.91797 90.7578 3.77734C90.9688 3.49609 91.2324 3.28516 91.5488 3.14453C91.8652 3.00391 92.1641 2.88086 92.4453 2.77539C92.7969 2.66992 93.1484 2.58203 93.5 2.51172H94.502C94.7832 2.51172 95.082 2.54687 95.3984 2.61719C95.7148 2.65234 95.9785 2.72266 96.1895 2.82812ZM105.734 37.5801C103.273 37.5801 101.375 36.7539 100.039 35.1016C98.7031 33.4492 98.0352 31.2871 98.0352 28.6152C98.0352 26.752 98.2988 25.0117 98.8262 23.3945C99.3887 21.7422 100.127 20.3184 101.041 19.123C101.955 17.9277 103.01 16.9961 104.205 16.3281C105.436 15.625 106.719 15.2734 108.055 15.2734C109.355 15.2734 110.463 15.748 111.377 16.6973C112.291 17.6113 112.748 18.9297 112.748 20.6523C112.748 21.7773 112.502 22.9023 112.01 24.0273C111.518 25.1172 110.867 26.1016 110.059 26.9805C109.285 27.8242 108.424 28.5098 107.475 29.0371C106.525 29.5645 105.611 29.8281 104.732 29.8281C104.17 29.8281 103.695 29.7578 103.309 29.6172C102.922 29.4766 102.57 29.2656 102.254 28.9844C102.359 30.9883 102.799 32.3945 103.572 33.2031C104.346 33.9766 105.348 34.3633 106.578 34.3633C107.422 34.3633 108.16 34.1875 108.793 33.8359C109.461 33.4844 110.023 33.0801 110.48 32.623C110.938 32.166 111.307 31.709 111.588 31.252C111.869 30.7598 112.062 30.3906 112.168 30.1445C112.273 29.9336 112.449 29.8281 112.695 29.8281C112.977 29.8281 113.117 30.0391 113.117 30.4609C113.117 30.8477 112.977 31.4453 112.695 32.2539C112.449 33.0273 112.027 33.8184 111.43 34.627C110.832 35.4004 110.059 36.0859 109.109 36.6836C108.195 37.2812 107.07 37.5801 105.734 37.5801ZM108.16 17.541C107.949 17.541 107.545 17.7695 106.947 18.2266C106.385 18.6484 105.77 19.2812 105.102 20.125C104.469 20.9688 103.871 21.9883 103.309 23.1836C102.781 24.3438 102.447 25.6621 102.307 27.1387C104.416 26.6465 106.086 25.873 107.316 24.8184C108.547 23.7637 109.162 22.2168 109.162 20.1777C109.162 19.1582 109.039 18.4727 108.793 18.1211C108.547 17.7344 108.336 17.541 108.16 17.541ZM138.799 41.6406C136.9 41.6406 135.178 41.166 133.631 40.2168C132.084 39.3027 130.766 38.0371 129.676 36.4199C128.621 34.8027 127.795 32.9043 127.197 30.7246C126.635 28.5449 126.354 26.1895 126.354 23.6582C126.354 20.0371 126.775 16.8027 127.619 13.9551C128.463 11.1074 129.57 8.69922 130.941 6.73047C132.348 4.76172 133.93 3.25 135.688 2.19531C137.48 1.14062 139.309 0.613281 141.172 0.613281C142.93 0.613281 144.406 0.929688 145.602 1.5625C146.797 2.19531 147.746 3.00391 148.449 3.98828C149.188 4.97266 149.68 6.0625 149.926 7.25781C150.207 8.41797 150.295 9.52539 150.189 10.5801C150.014 12.6191 149.311 14.2715 148.08 15.5371C146.885 16.8027 145.496 17.4355 143.914 17.4355C143.387 17.4004 142.842 17.3125 142.279 17.1719C141.787 17.0312 141.277 16.8203 140.75 16.5391C140.223 16.2578 139.73 15.8535 139.273 15.3262C140.75 15.4316 141.893 15.1328 142.701 14.4297C143.51 13.7266 144.107 12.9355 144.494 12.0566C144.916 11.0371 145.162 9.8418 145.232 8.4707C145.232 7.69727 145.109 7.0293 144.863 6.4668C144.617 5.86914 144.283 5.39453 143.861 5.04297C143.475 4.65625 143.053 4.375 142.596 4.19922C142.139 4.02344 141.699 3.93555 141.277 3.93555C140.328 3.93555 139.291 4.30469 138.166 5.04297C137.076 5.78125 136.039 6.90625 135.055 8.41797C134.07 9.89453 133.244 11.793 132.576 14.1133C131.943 16.3984 131.627 19.123 131.627 22.2871C131.627 25.416 131.908 27.9824 132.471 29.9863C133.033 31.9551 133.719 33.502 134.527 34.627C135.336 35.7168 136.18 36.4727 137.059 36.8945C137.973 37.2812 138.746 37.4746 139.379 37.4746C140.609 37.3691 141.734 36.9473 142.754 36.209C143.633 35.5762 144.459 34.5742 145.232 33.2031C146.041 31.7969 146.586 29.793 146.867 27.1914C147.324 27.2266 147.693 27.332 147.975 27.5078C148.291 27.6836 148.555 27.8594 148.766 28.0352C148.977 28.2461 149.17 28.4922 149.346 28.7734C149.381 28.8086 149.381 29.1602 149.346 29.8281C149.311 30.4961 149.188 31.3047 148.977 32.2539C148.766 33.2031 148.432 34.2227 147.975 35.3125C147.553 36.4023 146.938 37.4219 146.129 38.3711C145.355 39.3203 144.371 40.0938 143.176 40.6914C141.98 41.3242 140.521 41.6406 138.799 41.6406ZM157.414 28.7207C157.836 27.4551 158.188 26.3828 158.469 25.5039C158.785 24.625 159.049 23.9219 159.26 23.3945C159.506 22.7617 159.717 22.252 159.893 21.8652C160.104 21.3027 160.332 20.7402 160.578 20.1777C160.859 19.6152 161.141 19.1055 161.422 18.6484C161.703 18.1562 161.967 17.752 162.213 17.4355C162.459 17.1191 162.67 16.9082 162.846 16.8027C162.986 16.7324 163.303 16.7324 163.795 16.8027C164.322 16.873 164.885 17.0488 165.482 17.3301C166.115 17.5762 166.695 17.9277 167.223 18.3848C167.785 18.8418 168.172 19.4043 168.383 20.0723C168.594 20.8809 168.664 21.9355 168.594 23.2363C168.523 24.5371 168.418 25.873 168.277 27.2441C168.172 28.6152 168.084 29.916 168.014 31.1465C167.979 32.377 168.066 33.3086 168.277 33.9414C168.418 34.293 168.559 34.6445 168.699 34.9961C168.84 35.2773 168.998 35.5762 169.174 35.8926C169.385 36.1738 169.613 36.4199 169.859 36.6309C168.84 37.0176 168.014 37.2988 167.381 37.4746C166.783 37.6855 166.326 37.8262 166.01 37.8965C165.623 38.002 165.359 38.0195 165.219 37.9492C164.938 37.8438 164.674 37.5801 164.428 37.1582C164.182 36.7363 163.971 36.0684 163.795 35.1543C163.725 34.873 163.707 34.3809 163.742 33.6777C163.777 32.9746 163.83 32.1836 163.9 31.3047C163.971 30.4258 164.041 29.5117 164.111 28.5625C164.182 27.5781 164.252 26.6641 164.322 25.8203C164.393 24.9766 164.428 24.2383 164.428 23.6055C164.463 22.9727 164.463 22.5508 164.428 22.3398C164.252 21.7422 164.006 21.3203 163.689 21.0742C163.373 20.793 163.127 20.7578 162.951 20.9688C162.529 21.4961 162.055 22.4102 161.527 23.7109C161.035 24.9766 160.561 26.3652 160.104 27.877C159.646 29.3535 159.242 30.8301 158.891 32.3066C158.574 33.7832 158.381 34.9961 158.311 35.9453C158.311 36.1562 158.135 36.3848 157.783 36.6309C157.467 36.8418 157.098 37.0352 156.676 37.2109C156.289 37.3867 155.902 37.4922 155.516 37.5273C155.129 37.5977 154.865 37.5449 154.725 37.3691C154.619 37.2637 154.391 37.0176 154.039 36.6309C153.723 36.2441 153.547 35.5938 153.512 34.6797C153.441 33.8008 153.441 32.6055 153.512 31.0938C153.582 29.5469 153.6 27.9297 153.564 26.2422V22.3398C153.564 20.7578 153.547 18.5781 153.512 15.8008C153.512 12.9883 153.494 9.2793 153.459 4.67383C153.846 4.46289 154.197 4.28711 154.514 4.14648C154.83 3.9707 155.129 3.83008 155.41 3.72461C155.727 3.58398 156.025 3.47852 156.307 3.4082C157.818 3.02148 158.609 3.02148 158.68 3.4082C158.715 3.75977 158.68 4.88477 158.574 6.7832C158.539 7.5918 158.486 8.61133 158.416 9.8418C158.346 11.0723 158.258 12.5664 158.152 14.3242C158.082 16.082 157.977 18.1562 157.836 20.5469C157.73 22.9023 157.59 25.627 157.414 28.7207ZM187.631 34.3105C187.701 34.5566 187.807 34.7852 187.947 34.9961C188.053 35.1719 188.193 35.3477 188.369 35.5234C188.58 35.6641 188.826 35.752 189.107 35.7871C188.861 36.2793 188.615 36.6133 188.369 36.7891C188.229 36.8945 188.105 36.9648 188 37C187.684 37.1055 187.209 37.1582 186.576 37.1582C185.943 37.1582 185.328 36.9648 184.73 36.5781C184.52 36.4023 184.326 36.1387 184.15 35.7871C183.975 35.5059 183.816 35.1191 183.676 34.627C183.57 34.0996 183.482 33.4316 183.412 32.623C182.92 33.6777 182.357 34.5215 181.725 35.1543C181.127 35.752 180.529 36.1914 179.932 36.4727C179.264 36.8594 178.578 37.0879 177.875 37.1582C176.996 37.2285 176.152 37.0879 175.344 36.7363C174.57 36.3496 173.902 35.7871 173.34 35.0488C172.812 34.2754 172.408 33.3438 172.127 32.2539C171.846 31.1641 171.758 29.9336 171.863 28.5625C171.969 27.1211 172.25 25.8379 172.707 24.7129C173.164 23.5879 173.709 22.5859 174.342 21.707C174.975 20.8281 175.643 20.0898 176.346 19.4922C177.049 18.8594 177.717 18.3496 178.35 17.9629C179.018 17.541 179.58 17.2422 180.037 17.0664C180.529 16.8555 180.846 16.7324 180.986 16.6973C181.373 16.5918 181.707 16.5566 181.988 16.5918C182.27 16.627 182.516 16.7852 182.727 17.0664C182.797 17.1719 182.885 17.2949 182.99 17.4355C183.061 17.5762 183.148 17.7695 183.254 18.0156C183.359 18.2266 183.447 18.4727 183.518 18.7539C182.674 19.1406 181.883 19.5801 181.145 20.0723C180.406 20.5293 179.721 21.0918 179.088 21.7598C178.49 22.4277 177.963 23.2363 177.506 24.1855C177.049 25.1348 176.697 26.2949 176.451 27.666C176.1 29.3887 176.188 30.7773 176.715 31.832C177.277 32.8867 178.033 33.3262 178.982 33.1504C179.545 32.9746 180.09 32.6406 180.617 32.1484C181.074 31.7266 181.549 31.0938 182.041 30.25C182.568 29.4062 183.061 28.2461 183.518 26.7695C183.693 24.6602 183.834 23.0078 183.939 21.8125C184.08 20.582 184.203 19.6504 184.309 19.0176C184.449 18.2793 184.555 17.7871 184.625 17.541C184.73 17.3652 184.941 17.207 185.258 17.0664C185.574 16.8906 185.926 16.75 186.312 16.6445C186.699 16.5391 187.051 16.4863 187.367 16.4863C187.684 16.4512 187.895 16.4512 188 16.4863C188.07 16.5215 188.105 16.9609 188.105 17.8047C188.105 18.6133 188.07 19.6504 188 20.916C187.965 22.1465 187.912 23.5 187.842 24.9766C187.771 26.418 187.701 27.7891 187.631 29.0898C187.596 30.3906 187.561 31.5332 187.525 32.5176C187.525 33.4668 187.561 34.0645 187.631 34.3105ZM211.994 13.5332C211.607 13.4629 211.08 13.3926 210.412 13.3223C209.779 13.252 209.129 13.1992 208.461 13.1641C207.688 13.1289 206.861 13.1113 205.982 13.1113C205.104 13.041 203.996 13.041 202.66 13.1113C201.359 13.1465 199.988 13.1641 198.547 13.1641C198.512 14.0781 198.441 15.0098 198.336 15.959C198.266 16.9082 198.195 17.8398 198.125 18.7539C197.949 20.4414 197.791 22.1641 197.65 23.9219C197.545 25.6797 197.492 27.3496 197.492 28.9316C197.492 30.5137 197.58 31.9551 197.756 33.2559C197.967 34.5215 198.336 35.5234 198.863 36.2617C198.441 36.5781 197.984 36.8242 197.492 37C197 37.1406 196.561 37.2461 196.174 37.3164C195.717 37.4219 195.26 37.4746 194.803 37.4746C194.381 37.4746 194.029 37.334 193.748 37.0527C193.467 36.7715 193.309 36.2793 193.273 35.5762C193.203 34.3809 193.186 33.1855 193.221 31.9902C193.291 30.7598 193.361 29.4766 193.432 28.1406C193.537 26.8047 193.643 25.3809 193.748 23.8691C193.854 22.3223 193.959 20.6348 194.064 18.8066C194.17 16.9082 194.223 15.0625 194.223 13.2695C192.887 13.3047 191.762 13.3223 190.848 13.3223C189.934 13.3223 189.424 13.3047 189.318 13.2695C189.213 13.1992 189.09 13.041 188.949 12.7949C188.809 12.584 188.633 12.2676 188.422 11.8457C188.176 11.4238 187.877 10.8262 187.525 10.0527C188.193 10.0527 188.932 10.0527 189.74 10.0527C190.514 10.0527 191.234 10.0352 191.902 10C192.676 9.96484 193.449 9.92969 194.223 9.89453C194.188 9.33203 194.17 8.73438 194.17 8.10156C194.135 7.60937 194.117 7.06445 194.117 6.4668C194.117 5.83398 194.1 5.25391 194.064 4.72656C194.064 4.51562 194.311 4.26953 194.803 3.98828C195.33 3.67188 195.893 3.39062 196.49 3.14453C197.088 2.89844 197.633 2.74023 198.125 2.66992C198.652 2.59961 198.916 2.72266 198.916 3.03906C198.916 3.35547 198.898 4.12891 198.863 5.35938C198.863 6.55469 198.828 8.01367 198.758 9.73633C199.109 9.73633 199.373 9.71875 199.549 9.68359C201.412 9.61328 202.906 9.54297 204.031 9.47266C205.191 9.36719 206.141 9.34961 206.879 9.41992C207.617 9.49023 208.268 9.66602 208.83 9.94727C209.393 10.2285 210.025 10.6855 210.729 11.3184C210.975 11.5293 211.186 11.7578 211.361 12.0039C211.537 12.2148 211.678 12.4609 211.783 12.7422C211.924 12.9883 211.994 13.252 211.994 13.5332Z" fill="#0057FF"/>
</svg>
